{"url":"https://api.github.com/repos/k4yt3x/video2x/issues/190","repository_url":"https://api.github.com/repos/k4yt3x/video2x","labels_url":"https://api.github.com/repos/k4yt3x/video2x/issues/190/labels{/name}","comments_url":"https://api.github.com/repos/k4yt3x/video2x/issues/190/comments","events_url":"https://api.github.com/repos/k4yt3x/video2x/issues/190/events","html_url":"https://github.com/k4yt3x/video2x/issues/190","id":551828023,"node_id":"MDU6SXNzdWU1NTE4MjgwMjM=","number":190,"title":"No GPU Usage","user":{"login":"ThoradTM","id":60048256,"node_id":"MDQ6VXNlcjYwMDQ4MjU2","avatar_url":"https://avatars.githubusercontent.com/u/60048256?v=4","gravatar_id":"","url":"https://api.github.com/users/ThoradTM","html_url":"https://github.com/ThoradTM","followers_url":"https://api.github.com/users/ThoradTM/followers","following_url":"https://api.github.com/users/ThoradTM/following{/other_user}","gists_url":"https://api.github.com/users/ThoradTM/gists{/gist_id}","starred_url":"https://api.github.com/users/ThoradTM/starred{/owner}{/repo}","subscriptions_url":"https://api.github.com/users/ThoradTM/subscriptions","organizations_url":"https://api.github.com/users/ThoradTM/orgs","repos_url":"https://api.github.com/users/ThoradTM/repos","events_url":"https://api.github.com/users/ThoradTM/events{/privacy}","received_events_url":"https://api.github.com/users/ThoradTM/received_events","type":"User","site_admin":false},"labels":[{"id":847238628,"node_id":"MDU6TGFiZWw4NDcyMzg2Mjg=","url":"https://api.github.com/repos/k4yt3x/video2x/labels/type:Bug","name":"type:Bug","color":"d80000","default":false,"description":"Something isn't working"}],"state":"closed","locked":false,"assignee":{"login":"k4yt3x","id":21986859,"node_id":"MDQ6VXNlcjIxOTg2ODU5","avatar_url":"https://avatars.githubusercontent.com/u/21986859?v=4","gravatar_id":"","url":"https://api.github.com/users/k4yt3x","html_url":"https://github.com/k4yt3x","followers_url":"https://api.github.com/users/k4yt3x/followers","following_url":"https://api.github.com/users/k4yt3x/following{/other_user}","gists_url":"https://api.github.com/users/k4yt3x/gists{/gist_id}","starred_url":"https://api.github.com/users/k4yt3x/starred{/owner}{/repo}","subscriptions_url":"https://api.github.com/users/k4yt3x/subscriptions","organizations_url":"https://api.github.com/users/k4yt3x/orgs","repos_url":"https://api.github.com/users/k4yt3x/repos","events_url":"https://api.github.com/users/k4yt3x/events{/privacy}","received_events_url":"https://api.github.com/users/k4yt3x/received_events","type":"User","site_admin":false},"assignees":[{"login":"k4yt3x","id":21986859,"node_id":"MDQ6VXNlcjIxOTg2ODU5","avatar_url":"https://avatars.githubusercontent.com/u/21986859?v=4","gravatar_id":"","url":"https://api.github.com/users/k4yt3x","html_url":"https://github.com/k4yt3x","followers_url":"https://api.github.com/users/k4yt3x/followers","following_url":"https://api.github.com/users/k4yt3x/following{/other_user}","gists_url":"https://api.github.com/users/k4yt3x/gists{/gist_id}","starred_url":"https://api.github.com/users/k4yt3x/starred{/owner}{/repo}","subscriptions_url":"https://api.github.com/users/k4yt3x/subscriptions","organizations_url":"https://api.github.com/users/k4yt3x/orgs","repos_url":"https://api.github.com/users/k4yt3x/repos","events_url":"https://api.github.com/users/k4yt3x/events{/privacy}","received_events_url":"https://api.github.com/users/k4yt3x/received_events","type":"User","site_admin":false}],"milestone":null,"comments":1,"created_at":"2020-01-18T21:41:19Z","updated_at":"2020-01-18T22:14:49Z","closed_at":"2020-01-18T22:14:25Z","author_association":"NONE","active_lock_reason":null,"body":"My GPU is not being used at all by the program, and my CPU is being fully utilized as a result.\r\n![image](https://user-images.githubusercontent.com/60048256/72670878-87c1dd00-3a08-11ea-9548-a07d98b81c38.png)\r\n![image](https://user-images.githubusercontent.com/60048256/72670889-acb65000-3a08-11ea-83f5-134c4f376090.png)\r\nFull CMD output:\r\n2020-01-18 15:33:42.474665 [+] INFO: Extracted frames are being saved to: C:\\Users\\Thorad\\AppData\\Local\\Temp\\video2x\\tmpgl19faim\r\n2020-01-18 15:33:42.475666 [+] INFO: Upscaled frames are being saved to: C:\\Users\\Thorad\\AppData\\Local\\Temp\\video2x\\tmpyt3z2jg3\r\n2020-01-18 15:33:42.476666 [+] INFO: Executing: ['C:\\\\Users\\\\Thorad\\\\AppData\\\\Local\\\\video2x\\\\ffmpeg-latest-win64-static\\\\bin\\\\ffmpeg.exe', '-hwaccel', 'auto', '-y', '-i', 'C:\\\\Users\\\\Thorad\\\\Videos\\\\code.mkv', '-pix_fmt', 'rgba64be', 'C:\\\\Users\\\\Thorad\\\\AppData\\\\Local\\\\Temp\\\\video2x\\\\tmpgl19faim\\\\extracted_%0d.PNG']\r\nffmpeg version git-2020-01-15-0dc0837 Copyright (c) 2000-2020 the FFmpeg developers\r\n  built with gcc 9.2.1 (GCC) 20200111\r\n  configuration: --enable-gpl --enable-version3 --enable-sdl2 --enable-fontconfig --enable-gnutls --enable-iconv --enable-libass --enable-libdav1d --enable-libbluray --enable-libfreetype --enable-libmp3lame --enable-libopencore-amrnb --enable-libopencore-amrwb --enable-libopenjpeg --enable-libopus --enable-libshine --enable-libsnappy --enable-libsoxr --enable-libtheora --enable-libtwolame --enable-libvpx --enable-libwavpack --enable-libwebp --enable-libx264 --enable-libx265 --enable-libxml2 --enable-libzimg --enable-lzma --enable-zlib --enable-gmp --enable-libvidstab --enable-libvorbis --enable-libvo-amrwbenc --enable-libmysofa --enable-libspeex --enable-libxvid --enable-libaom --enable-libmfx --enable-ffnvcodec --enable-cuvid --enable-d3d11va --enable-nvenc --enable-nvdec --enable-dxva2 --enable-avisynth --enable-libopenmpt --enable-amf\r\n  libavutil      56. 38.100 / 56. 38.100\r\n  libavcodec     58. 65.103 / 58. 65.103\r\n  libavformat    58. 35.102 / 58. 35.102\r\n  libavdevice    58.  9.103 / 58.  9.103\r\n  libavfilter     7. 71.100 /  7. 71.100\r\n  libswscale      5.  6.100 /  5.  6.100\r\n  libswresample   3.  6.100 /  3.  6.100\r\n  libpostproc    55.  6.100 / 55.  6.100\r\nInput #0, matroska,webm, from 'C:\\Users\\Thorad\\Videos\\code.mkv':\r\n  Metadata:\r\n    encoder         : libebml v1.3.0 + libmatroska v1.4.1\r\n    creation_time   : 2014-09-01T04:06:13.000000Z\r\n  Duration: 00:24:10.45, start: 0.000000, bitrate: 6334 kb/s\r\n    Chapter #0:0: start 0.000000, end 104.104000\r\n    Metadata:\r\n      title           : Chapter 01\r\n    Chapter #0:1: start 104.104000, end 194.194000\r\n    Metadata:\r\n      title           : Chapter 02\r\n    Chapter #0:2: start 194.194000, end 793.793000\r\n    Metadata:\r\n      title           : Chapter 03\r\n    Chapter #0:3: start 793.793000, end 1359.358000\r\n    Metadata:\r\n      title           : Chapter 04\r\n    Chapter #0:4: start 1359.358000, end 1450.449000\r\n    Metadata:\r\n      title           : Chapter 05\r\n    Stream #0:0(eng): Video: h264 (High 10), yuv420p10le(progressive), 1920x1080 [SAR 1:1 DAR 16:9], 23.98 fps, 23.98 tbr, 1k tbn, 47.95 tbc (default)\r\n    Metadata:\r\n      _STATISTICS_WRITING_APP: mkvmerge v7.1.0 ('Good Love') 64bit built on Jul 27 2014 13:06:55\r\n      _STATISTICS_WRITING_APP-eng: mkvmerge v7.1.0 ('Good Love') 64bit built on Jul 27 2014 13:06:55\r\n      _STATISTICS_WRITING_DATE_UTC: 2014-09-01 04:06:13\r\n      _STATISTICS_WRITING_DATE_UTC-eng: 2014-09-01 04:06:13\r\n      _STATISTICS_TAGS: BPS DURATION NUMBER_OF_FRAMES NUMBER_OF_BYTES\r\n      _STATISTICS_TAGS-eng: BPS DURATION NUMBER_OF_FRAMES NUMBER_OF_BYTES\r\n      BPS             : 5597190\r\n      BPS-eng         : 5597190\r\n      DURATION        : 00:24:10.449000000\r\n      DURATION-eng    : 00:24:10.449000000\r\n      NUMBER_OF_FRAMES: 34776\r\n      NUMBER_OF_FRAMES-eng: 34776\r\n      NUMBER_OF_BYTES : 1014804966\r\n      NUMBER_OF_BYTES-eng: 1014804966\r\n    Stream #0:1(jpn): Audio: flac, 48000 Hz, stereo, s16\r\n    Metadata:\r\n      _STATISTICS_WRITING_APP: mkvmerge v7.1.0 ('Good Love') 64bit built on Jul 27 2014 13:06:55\r\n      _STATISTICS_WRITING_APP-eng: mkvmerge v7.1.0 ('Good Love') 64bit built on Jul 27 2014 13:06:55\r\n      _STATISTICS_WRITING_DATE_UTC: 2014-09-01 04:06:13\r\n      _STATISTICS_WRITING_DATE_UTC-eng: 2014-09-01 04:06:13\r\n      _STATISTICS_TAGS: BPS DURATION NUMBER_OF_FRAMES NUMBER_OF_BYTES\r\n      _STATISTICS_TAGS-eng: BPS DURATION NUMBER_OF_FRAMES NUMBER_OF_BYTES\r\n      BPS             : 735933\r\n      BPS-eng         : 735933\r\n      DURATION        : 00:24:10.449000000\r\n      DURATION-eng    : 00:24:10.449000000\r\n      NUMBER_OF_FRAMES: 16998\r\n      NUMBER_OF_FRAMES-eng: 16998\r\n      NUMBER_OF_BYTES : 133429238\r\n      NUMBER_OF_BYTES-eng: 133429238\r\n[h264 @ 000002a5a47bb340] Using auto hwaccel type dxva2 with new default device.\r\nStream mapping:\r\n  Stream #0:0 -> #0:0 (h264 (native) -> png (native))\r\nPress [q] to stop, [?] for help\r\nOutput #0, image2, to 'C:\\Users\\Thorad\\AppData\\Local\\Temp\\video2x\\tmpgl19faim\\extracted_%0d.PNG':\r\n  Metadata:\r\n    encoder         : Lavf58.35.102\r\n    Chapter #0:0: start 0.000000, end 104.104000\r\n    Metadata:\r\n      title           : Chapter 01\r\n    Chapter #0:1: start 104.104000, end 194.194000\r\n    Metadata:\r\n      title           : Chapter 02\r\n    Chapter #0:2: start 194.194000, end 793.793000\r\n    Metadata:\r\n      title           : Chapter 03\r\n    Chapter #0:3: start 793.793000, end 1359.358000\r\n    Metadata:\r\n      title           : Chapter 04\r\n    Chapter #0:4: start 1359.358000, end 1450.449000\r\n    Metadata:\r\n      title           : Chapter 05\r\n    Stream #0:0(eng): Video: png, rgba64be, 1920x1080 [SAR 1:1 DAR 16:9], q=2-31, 200 kb/s, 23.98 fps, 23.98 tbn, 23.98 tbc (default)\r\n    Metadata:\r\n      _STATISTICS_WRITING_APP: mkvmerge v7.1.0 ('Good Love') 64bit built on Jul 27 2014 13:06:55\r\n      _STATISTICS_WRITING_APP-eng: mkvmerge v7.1.0 ('Good Love') 64bit built on Jul 27 2014 13:06:55\r\n      _STATISTICS_WRITING_DATE_UTC: 2014-09-01 04:06:13\r\n      _STATISTICS_WRITING_DATE_UTC-eng: 2014-09-01 04:06:13\r\n      _STATISTICS_TAGS: BPS DURATION NUMBER_OF_FRAMES NUMBER_OF_BYTES\r\n      _STATISTICS_TAGS-eng: BPS DURATION NUMBER_OF_FRAMES NUMBER_OF_BYTES\r\n      BPS             : 5597190\r\n      BPS-eng         : 5597190\r\n      DURATION        : 00:24:10.449000000\r\n      DURATION-eng    : 00:24:10.449000000\r\n      NUMBER_OF_FRAMES: 34776\r\n      NUMBER_OF_FRAMES-eng: 34776\r\n      NUMBER_OF_BYTES : 1014804966\r\n      NUMBER_OF_BYTES-eng: 1014804966\r\n      encoder         : Lavc58.65.103 png\r\nframe= 1974 fps=5.9 q=-0.0 size=N/A time=00:01:21.66 bitrate=N/A speed=0.243x\r\nSettings in GUI:\r\n![image](https://user-images.githubusercontent.com/60048256/72670895-c6579780-3a08-11ea-9ea8-aa483150deb4.png)","closed_by":{"login":"ThoradTM","id":60048256,"node_id":"MDQ6VXNlcjYwMDQ4MjU2","avatar_url":"https://avatars.githubusercontent.com/u/60048256?v=4","gravatar_id":"","url":"https://api.github.com/users/ThoradTM","html_url":"https://github.com/ThoradTM","followers_url":"https://api.github.com/users/ThoradTM/followers","following_url":"https://api.github.com/users/ThoradTM/following{/other_user}","gists_url":"https://api.github.com/users/ThoradTM/gists{/gist_id}","starred_url":"https://api.github.com/users/ThoradTM/starred{/owner}{/repo}","subscriptions_url":"https://api.github.com/users/ThoradTM/subscriptions","organizations_url":"https://api.github.com/users/ThoradTM/orgs","repos_url":"https://api.github.com/users/ThoradTM/repos","events_url":"https://api.github.com/users/ThoradTM/events{/privacy}","received_events_url":"https://api.github.com/users/ThoradTM/received_events","type":"User","site_admin":false},"reactions":{"url":"https://api.github.com/repos/k4yt3x/video2x/issues/190/reactions","total_count":0,"+1":0,"-1":0,"laugh":0,"hooray":0,"confused":0,"heart":0,"rocket":0,"eyes":0},"timeline_url":"https://api.github.com/repos/k4yt3x/video2x/issues/190/timeline","performed_via_github_app":null,"state_reason":"completed"}